# Blender 4.4.0
# www.blender.org
mtllib sphere3.mtl
o Icosphere
v 0.000000 -0.930305 -0.000000
v 0.673174 -0.416049 0.489085
v -0.257126 -0.416049 0.791362
v -0.832088 -0.416047 -0.000000
v -0.257126 -0.416049 -0.791362
v 0.673174 -0.416049 -0.489085
v 0.257126 0.416049 0.791362
v -0.673174 0.416049 0.489085
v -0.673174 0.416049 -0.489085
v 0.257126 0.416049 -0.791362
v 0.832088 0.416047 0.000000
v -0.000000 0.930305 0.000000
v -0.150250 -0.786741 0.462429
v 0.393367 -0.786741 0.285795
v 0.243117 -0.486235 0.748227
v 0.786735 -0.486234 -0.000000
v 0.393367 -0.786741 -0.285795
v -0.486229 -0.786739 0.000000
v -0.636482 -0.486234 0.462430
v -0.150250 -0.786741 -0.462429
v -0.636482 -0.486234 -0.462430
v 0.243117 -0.486235 -0.748227
v 0.879599 -0.000000 0.285796
v 0.879599 -0.000000 -0.285796
v 0.000000 -0.000000 0.924864
v 0.543622 -0.000000 0.748230
v -0.879599 0.000000 0.285796
v -0.543622 0.000000 0.748230
v -0.543622 0.000000 -0.748230
v -0.879599 0.000000 -0.285796
v 0.543622 -0.000000 -0.748230
v -0.000000 0.000000 -0.924864
v 0.636482 0.486234 0.462430
v -0.243117 0.486235 0.748227
v -0.786735 0.486234 -0.000000
v -0.243117 0.486235 -0.748227
v 0.636482 0.486234 -0.462430
v 0.150250 0.786741 0.462429
v 0.486229 0.786739 -0.000000
v -0.393367 0.786741 0.285795
v -0.393367 0.786741 -0.285795
v 0.150250 0.786741 -0.462429
v -0.073931 -0.898430 0.227539
v 0.563546 -0.615787 0.409436
v -0.021694 -0.467922 0.803114
v 0.757104 -0.467921 0.268809
v 0.563546 -0.615787 -0.409436
v -0.239250 -0.898430 0.000000
v -0.770514 -0.467920 0.227540
v -0.073931 -0.898431 -0.227539
v -0.454504 -0.467922 -0.662487
v 0.489615 -0.467922 -0.636978
v 0.802799 -0.228668 0.409437
v 0.890141 0.228667 -0.140627
v -0.141321 -0.228668 0.890030
v 0.408812 0.228668 0.803116
v -0.890141 -0.228667 0.140627
v -0.637480 0.228668 0.636979
v -0.408812 -0.228668 -0.803117
v -0.802799 0.228668 -0.409437
v 0.637480 -0.228668 -0.636979
v 0.141321 0.228668 -0.890030
v 0.454504 0.467922 0.662487
v -0.489615 0.467922 0.636978
v -0.757104 0.467921 -0.268809
v 0.021694 0.467922 -0.803114
v 0.770514 0.467920 -0.227540
v 0.215252 0.615787 0.662486
v 0.239250 0.898430 0.000000
v -0.563546 0.615787 0.409436
v -0.563546 0.615787 -0.409436
v 0.215252 0.615787 -0.662486
v -0.215252 -0.615787 0.662486
v 0.193558 -0.898431 0.140627
v 0.489615 -0.467922 0.636978
v 0.757104 -0.467921 -0.268809
v 0.193558 -0.898431 -0.140626
v -0.696581 -0.615785 -0.000000
v -0.454504 -0.467922 0.662487
v -0.215252 -0.615788 -0.662486
v -0.770514 -0.467920 -0.227540
v -0.021694 -0.467922 -0.803114
v 0.890141 0.228667 0.140627
v 0.802799 -0.228668 -0.409437
v 0.141321 0.228668 0.890030
v 0.637480 -0.228668 0.636979
v -0.802799 0.228668 0.409437
v -0.408812 -0.228668 0.803117
v -0.637480 0.228668 -0.636979
v -0.890141 -0.228667 -0.140627
v 0.408812 0.228668 -0.803117
v -0.141321 -0.228668 -0.890030
v 0.770514 0.467920 0.227540
v 0.021694 0.467922 0.803114
v -0.757104 0.467921 0.268809
v -0.489615 0.467922 -0.636978
v 0.454504 0.467922 -0.662487
v 0.073931 0.898430 0.227539
v 0.696581 0.615785 -0.000000
v -0.193558 0.898431 0.140626
v -0.193558 0.898431 -0.140627
v 0.073931 0.898430 -0.227539
v 0.339247 0.822416 -0.246477
v 0.583871 0.671232 -0.246477
v 0.414839 0.671233 -0.479126
v -0.129583 0.822417 -0.398807
v -0.053992 0.671234 -0.631458
v -0.327487 0.671233 -0.542592
v -0.419333 0.822417 -0.000000
v -0.617237 0.671233 -0.143784
v -0.617237 0.671233 0.143784
v -0.129583 0.822417 0.398807
v -0.327487 0.671233 0.542592
v -0.053992 0.671234 0.631458
v 0.339247 0.822416 0.246477
v 0.414839 0.671233 0.479126
v 0.583871 0.671232 0.246477
v 0.793540 0.251895 -0.398809
v 0.746822 0.007270 -0.542595
v 0.624509 0.251896 -0.631460
v -0.134077 0.251896 -0.877939
v -0.285260 0.007270 -0.877940
v -0.407573 0.251896 -0.789074
v -0.876403 0.251896 -0.143784
v -0.923122 0.007270 0.000000
v -0.876403 0.251896 0.143784
v -0.407573 0.251896 0.789074
v -0.285260 0.007270 0.877940
v -0.134077 0.251896 0.877939
v 0.624509 0.251896 0.631460
v 0.746822 0.007270 0.542595
v 0.793540 0.251895 0.398809
v 0.285260 -0.007270 -0.877940
v 0.407573 -0.251896 -0.789074
v 0.134077 -0.251896 -0.877939
v -0.746822 -0.007270 -0.542595
v -0.624509 -0.251896 -0.631460
v -0.793540 -0.251895 -0.398809
v -0.746822 -0.007270 0.542595
v -0.793540 -0.251895 0.398809
v -0.624509 -0.251896 0.631460
v 0.285260 -0.007270 0.877940
v 0.134077 -0.251896 0.877939
v 0.407573 -0.251896 0.789074
v 0.923122 -0.007270 -0.000000
v 0.876403 -0.251896 0.143784
v 0.876403 -0.251896 -0.143784
v 0.327487 -0.671233 -0.542592
v 0.129583 -0.822418 -0.398807
v 0.053992 -0.671234 -0.631458
v -0.414839 -0.671233 -0.479126
v -0.339247 -0.822416 -0.246477
v -0.583871 -0.671232 -0.246477
v -0.583871 -0.671232 0.246477
v -0.339247 -0.822416 0.246477
v -0.414839 -0.671233 0.479126
v 0.617237 -0.671233 -0.143784
v 0.617237 -0.671233 0.143784
v 0.419333 -0.822417 0.000000
v 0.053992 -0.671233 0.631458
v 0.129583 -0.822418 0.398807
v 0.327487 -0.671234 0.542592
v 0.085689 -0.888288 0.263719
v 0.657405 -0.597910 0.276164
v -0.224334 -0.888287 0.162988
v -0.224334 -0.888287 -0.162988
v 0.085689 -0.888288 -0.263719
v 0.828783 -0.320615 0.276165
v -0.006541 -0.320615 0.873558
v -0.832827 -0.320613 0.263720
v -0.508170 -0.320615 -0.710570
v 0.518761 -0.320615 -0.702876
v 0.743096 -0.149236 0.539887
v -0.283836 -0.149236 0.873560
v -0.918517 -0.149235 0.000000
v -0.283836 -0.149236 -0.873560
v 0.743096 -0.149236 -0.539887
v 0.369522 0.597910 0.609836
v -0.465802 0.597910 0.539885
v -0.657405 0.597910 -0.276164
v 0.059498 0.597910 -0.710568
v 0.694179 0.597908 -0.162988
v 0.224334 0.888287 -0.162988
v 0.453115 0.733163 -0.329207
v 0.369522 0.597910 -0.609836
v -0.085689 0.888288 -0.263719
v -0.173077 0.733164 -0.532667
v -0.465802 0.597910 -0.539885
v -0.277292 0.888288 0.000000
v -0.560082 0.733164 0.000000
v -0.657405 0.597910 0.276164
v -0.085689 0.888288 0.263719
v -0.173077 0.733164 0.532667
v 0.059498 0.597910 0.710568
v 0.224334 0.888287 0.162988
v 0.453115 0.733163 0.329207
v 0.694179 0.597908 0.162988
v 0.832827 0.320613 -0.263720
v 0.733160 0.173077 -0.532669
v 0.508170 0.320615 -0.710570
v 0.006541 0.320615 -0.873558
v -0.280043 0.173078 -0.861879
v -0.518761 0.320615 -0.702876
v -0.828783 0.320615 -0.276165
v -0.906235 0.173077 0.000000
v -0.828783 0.320615 0.276165
v -0.518761 0.320615 0.702876
v -0.280043 0.173078 0.861879
v 0.006541 0.320615 0.873558
v 0.508170 0.320615 0.710570
v 0.733160 0.173077 0.532669
v 0.832827 0.320613 0.263720
v 0.283836 0.149236 -0.873560
v 0.280043 -0.173078 -0.861879
v -0.006541 -0.320615 -0.873558
v -0.743096 0.149236 -0.539887
v -0.733160 -0.173077 -0.532669
v -0.832827 -0.320613 -0.263720
v -0.743096 0.149236 0.539887
v -0.733160 -0.173077 0.532669
v -0.508170 -0.320615 0.710570
v 0.283836 0.149236 0.873560
v 0.280043 -0.173078 0.861879
v 0.518761 -0.320615 0.702876
v 0.918516 0.149235 -0.000000
v 0.906235 -0.173077 -0.000000
v 0.828783 -0.320615 -0.276165
v 0.465802 -0.597910 -0.539885
v 0.173077 -0.733164 -0.532667
v -0.059498 -0.597910 -0.710568
v -0.369522 -0.597910 -0.609835
v -0.453115 -0.733163 -0.329207
v -0.694179 -0.597908 -0.162988
v -0.694179 -0.597908 0.162988
v -0.453115 -0.733163 0.329207
v -0.369522 -0.597910 0.609836
v 0.657405 -0.597910 -0.276164
v 0.560082 -0.733164 -0.000000
v 0.277292 -0.888288 -0.000000
v -0.059498 -0.597910 0.710568
v 0.173077 -0.733164 0.532667
v 0.465802 -0.597910 0.539885
vn 0.0293 -0.9886 0.1480
vn 0.2647 -0.9053 0.3321
vn -0.0190 -0.9053 0.4243
vn 0.7355 -0.5411 0.4077
vn 0.5734 -0.7711 0.2768
vn 0.7787 -0.6142 0.1277
vn -0.1317 -0.9886 0.0736
vn -0.2341 -0.9053 0.3544
vn -0.4094 -0.9053 0.1131
vn -0.1107 -0.9886 -0.1025
vn -0.4094 -0.9053 -0.1131
vn -0.2341 -0.9053 -0.3544
vn 0.0633 -0.9886 -0.1369
vn -0.0190 -0.9053 -0.4243
vn 0.2647 -0.9053 -0.3321
vn 0.8187 -0.3855 0.4256
vn 0.8976 -0.4218 0.1277
vn 0.9461 -0.1681 0.2768
vn -0.1517 -0.3855 0.9102
vn 0.1560 -0.4218 0.8932
vn 0.0291 -0.1681 0.9853
vn -0.9125 -0.3855 0.1369
vn -0.8013 -0.4218 0.4243
vn -0.9281 -0.1681 0.3321
vn -0.4122 -0.3855 -0.8255
vn -0.6512 -0.4218 -0.6309
vn -0.6027 -0.1681 -0.7801
vn 0.6577 -0.3855 -0.6471
vn 0.3988 -0.4218 -0.8143
vn 0.5556 -0.1681 -0.8143
vn 0.7590 -0.3081 0.5736
vn 0.8866 -0.0492 0.4598
vn 0.7113 -0.0492 0.7012
vn -0.3109 -0.3081 0.8991
vn -0.1633 -0.0492 0.9853
vn -0.4470 -0.0492 0.8932
vn -0.9512 -0.3081 -0.0179
vn -0.9876 -0.0492 0.1491
vn -0.9876 -0.0492 -0.1491
vn -0.2769 -0.3081 -0.9102
vn -0.4470 -0.0492 -0.8932
vn -0.1633 -0.0492 -0.9853
vn 0.7800 -0.3081 -0.5446
vn 0.7113 -0.0492 -0.7012
vn 0.8866 -0.0492 -0.4598
vn 0.3250 0.5599 0.7622
vn 0.5549 0.6142 0.5610
vn 0.3012 0.7711 0.5610
vn -0.6244 0.5599 0.5446
vn -0.3621 0.6142 0.7012
vn -0.4405 0.7711 0.4598
vn -0.7109 0.5599 -0.4256
vn -0.7787 0.6142 -0.1277
vn -0.5734 0.7711 -0.2768
vn 0.1851 0.5599 -0.8076
vn -0.1192 0.6142 -0.7801
vn 0.0861 0.7711 -0.6309
vn 0.8253 0.5599 -0.0736
vn 0.7051 0.6142 -0.3544
vn 0.6266 0.7711 -0.1131
vn 0.4094 0.9053 -0.1131
vn 0.2341 0.9053 -0.3544
vn 0.1107 0.9886 -0.1025
vn 0.5165 0.8356 -0.1870
vn 0.5965 0.6755 -0.4334
vn 0.3375 0.8356 -0.4334
vn 0.5549 0.6142 -0.5610
vn 0.3554 0.5411 -0.7622
vn 0.3012 0.7711 -0.5610
vn 0.0190 0.9053 -0.4243
vn -0.2647 0.9053 -0.3321
vn -0.0633 0.9886 -0.1369
vn -0.0183 0.8356 -0.5490
vn -0.2278 0.6755 -0.7012
vn -0.3079 0.8356 -0.4549
vn -0.3621 0.6142 -0.7012
vn -0.6150 0.5411 -0.5736
vn -0.4405 0.7711 -0.4598
vn -0.3977 0.9053 -0.1491
vn -0.3977 0.9053 0.1491
vn -0.1498 0.9886 0.0179
vn -0.5277 0.8356 -0.1523
vn -0.7373 0.6755 -0.0000
vn -0.5277 0.8356 0.1523
vn -0.7787 0.6142 0.1277
vn -0.7355 0.5411 0.4077
vn -0.5734 0.7711 0.2768
vn -0.2647 0.9053 0.3321
vn 0.0190 0.9053 0.4243
vn -0.0293 0.9886 0.1480
vn -0.3079 0.8356 0.4549
vn -0.2278 0.6755 0.7012
vn -0.0183 0.8356 0.5490
vn -0.1192 0.6142 0.7801
vn 0.1604 0.5411 0.8255
vn 0.0861 0.7711 0.6309
vn 0.2341 0.9053 0.3544
vn 0.4094 0.9053 0.1131
vn 0.1317 0.9886 0.0736
vn 0.3375 0.8356 0.4334
vn 0.5965 0.6755 0.4334
vn 0.5165 0.8356 0.1870
vn 0.7051 0.6142 0.3544
vn 0.8347 0.5411 0.1025
vn 0.6266 0.7711 0.1131
vn 0.9281 0.1681 -0.3321
vn 0.8013 0.4218 -0.4243
vn 0.8973 0.4159 -0.1480
vn 0.8851 0.0983 -0.4549
vn 0.7061 0.0983 -0.7012
vn 0.7556 0.3574 -0.5490
vn 0.6027 0.1681 -0.7801
vn 0.4122 0.3855 -0.8255
vn 0.6512 0.4218 -0.6309
vn -0.0291 0.1681 -0.9853
vn -0.1560 0.4218 -0.8932
vn 0.1365 0.4159 -0.8991
vn -0.1591 0.0983 -0.9824
vn -0.4487 0.0983 -0.8883
vn -0.2886 0.3574 -0.8883
vn -0.5556 0.1681 -0.8143
vn -0.6577 0.3855 -0.6471
vn -0.3988 0.4218 -0.8143
vn -0.9461 0.1681 -0.2768
vn -0.8976 0.4218 -0.1277
vn -0.8129 0.4159 -0.4077
vn -0.9834 0.0983 -0.1523
vn -0.9834 0.0983 0.1523
vn -0.9340 0.3574 -0.0000
vn -0.9461 0.1681 0.2768
vn -0.8187 0.3855 0.4256
vn -0.8976 0.4218 0.1277
vn -0.5556 0.1681 0.8143
vn -0.3988 0.4218 0.8143
vn -0.6389 0.4159 0.6471
vn -0.4487 0.0983 0.8883
vn -0.1591 0.0983 0.9824
vn -0.2886 0.3574 0.8883
vn -0.0291 0.1681 0.9853
vn 0.1517 0.3855 0.9102
vn -0.1560 0.4218 0.8932
vn 0.6027 0.1681 0.7801
vn 0.6512 0.4218 0.6309
vn 0.4180 0.4159 0.8076
vn 0.7061 0.0983 0.7012
vn 0.8851 0.0983 0.4549
vn 0.7556 0.3574 0.5490
vn 0.9281 0.1681 0.3321
vn 0.9125 0.3855 0.1369
vn 0.8013 0.4218 0.4243
vn 0.4470 0.0492 -0.8932
vn 0.1633 0.0492 -0.9853
vn 0.2769 0.3081 -0.9102
vn 0.4487 -0.0983 -0.8883
vn 0.2886 -0.3574 -0.8882
vn 0.1591 -0.0983 -0.9824
vn 0.1560 -0.4218 -0.8932
vn -0.1365 -0.4159 -0.8991
vn 0.0291 -0.1681 -0.9853
vn -0.7113 0.0492 -0.7012
vn -0.8866 0.0492 -0.4598
vn -0.7800 0.3081 -0.5446
vn -0.7061 -0.0983 -0.7012
vn -0.7556 -0.3574 -0.5490
vn -0.8851 -0.0983 -0.4549
vn -0.8013 -0.4218 -0.4243
vn -0.8973 -0.4159 -0.1480
vn -0.9281 -0.1681 -0.3321
vn -0.8866 0.0492 0.4598
vn -0.7113 0.0492 0.7012
vn -0.7590 0.3081 0.5736
vn -0.8851 -0.0983 0.4549
vn -0.7556 -0.3574 0.5490
vn -0.7061 -0.0983 0.7012
vn -0.6512 -0.4218 0.6309
vn -0.4180 -0.4159 0.8076
vn -0.6027 -0.1681 0.7801
vn 0.1633 0.0492 0.9853
vn 0.4470 0.0492 0.8932
vn 0.3109 0.3081 0.8991
vn 0.1591 -0.0983 0.9824
vn 0.2886 -0.3574 0.8883
vn 0.4487 -0.0983 0.8883
vn 0.3988 -0.4218 0.8143
vn 0.6389 -0.4159 0.6471
vn 0.5556 -0.1681 0.8143
vn 0.9876 0.0492 0.1491
vn 0.9876 0.0492 -0.1491
vn 0.9512 0.3081 -0.0179
vn 0.9834 -0.0983 0.1523
vn 0.9340 -0.3574 -0.0000
vn 0.9834 -0.0983 -0.1523
vn 0.8976 -0.4218 -0.1277
vn 0.8129 -0.4159 -0.4077
vn 0.9461 -0.1681 -0.2768
vn 0.4405 -0.7711 -0.4598
vn 0.3621 -0.6142 -0.7012
vn 0.6150 -0.5411 -0.5736
vn 0.3079 -0.8356 -0.4549
vn 0.0183 -0.8356 -0.5490
vn 0.2278 -0.6755 -0.7012
vn -0.0861 -0.7711 -0.6309
vn -0.1851 -0.5599 -0.8076
vn 0.1192 -0.6142 -0.7801
vn -0.3012 -0.7711 -0.5610
vn -0.5549 -0.6142 -0.5610
vn -0.3554 -0.5411 -0.7622
vn -0.3375 -0.8356 -0.4334
vn -0.5165 -0.8356 -0.1870
vn -0.5965 -0.6755 -0.4334
vn -0.6266 -0.7711 -0.1131
vn -0.8253 -0.5599 -0.0736
vn -0.7051 -0.6142 -0.3544
vn -0.6266 -0.7711 0.1131
vn -0.7051 -0.6142 0.3544
vn -0.8347 -0.5411 0.1025
vn -0.5165 -0.8356 0.1870
vn -0.3375 -0.8356 0.4334
vn -0.5965 -0.6755 0.4334
vn -0.3012 -0.7711 0.5610
vn -0.3250 -0.5599 0.7622
vn -0.5549 -0.6142 0.5610
vn 0.7787 -0.6142 -0.1277
vn 0.5734 -0.7711 -0.2768
vn 0.7109 -0.5599 -0.4256
vn 0.7373 -0.6755 -0.0000
vn 0.5277 -0.8356 0.1523
vn 0.5277 -0.8356 -0.1523
vn 0.3977 -0.9053 0.1491
vn 0.1498 -0.9886 0.0179
vn 0.3977 -0.9053 -0.1491
vn -0.0861 -0.7711 0.6309
vn 0.1192 -0.6142 0.7801
vn -0.1604 -0.5411 0.8255
vn 0.0183 -0.8356 0.5490
vn 0.3079 -0.8356 0.4549
vn 0.2278 -0.6755 0.7012
vn 0.4405 -0.7711 0.4598
vn 0.6244 -0.5599 0.5446
vn 0.3621 -0.6142 0.7012
vn 0.0633 -0.9886 0.1369
vn 0.3009 -0.8920 0.3372
vn -0.0452 -0.8920 0.4497
vn 0.7109 -0.5599 0.4256
vn 0.5421 -0.7940 0.2753
vn 0.7926 -0.6026 0.0933
vn -0.1107 -0.9886 0.1025
vn -0.2277 -0.8920 0.3904
vn -0.4416 -0.8920 0.0959
vn -0.1317 -0.9886 -0.0736
vn -0.4416 -0.8920 -0.0959
vn -0.2277 -0.8920 -0.3904
vn 0.0293 -0.9886 -0.1480
vn -0.0452 -0.8920 -0.4497
vn 0.3009 -0.8920 -0.3372
vn 0.8129 -0.4159 0.4077
vn 0.8934 -0.4394 0.0933
vn 0.9526 -0.1298 0.2753
vn -0.1365 -0.4159 0.8991
vn 0.1874 -0.4394 0.8785
vn 0.0326 -0.1298 0.9910
vn -0.8973 -0.4159 0.1480
vn -0.7776 -0.4394 0.4497
vn -0.9324 -0.1298 0.3372
vn -0.4180 -0.4159 -0.8076
vn -0.6680 -0.4394 -0.6006
vn -0.6088 -0.1298 -0.7826
vn 0.6389 -0.4159 -0.6471
vn 0.3648 -0.4394 -0.8209
vn 0.5562 -0.1298 -0.8209
vn 0.7800 -0.3081 0.5446
vn 0.9021 -0.0289 0.4305
vn 0.6882 -0.0289 0.7249
vn -0.2769 -0.3081 0.9102
vn -0.1306 -0.0289 0.9910
vn -0.4768 -0.0289 0.8785
vn -0.9512 -0.3081 0.0179
vn -0.9829 -0.0289 0.1820
vn -0.9829 -0.0289 -0.1820
vn -0.3109 -0.3081 -0.8991
vn -0.4768 -0.0289 -0.8785
vn -0.1306 -0.0289 -0.9910
vn 0.7590 -0.3081 -0.5736
vn 0.6882 -0.0289 -0.7249
vn 0.9021 -0.0289 -0.4305
vn 0.3554 0.5411 0.7622
vn 0.5864 0.6026 0.5413
vn 0.2768 0.7940 0.5413
vn -0.6150 0.5411 0.5736
vn -0.3336 0.6026 0.7249
vn -0.4293 0.7940 0.4305
vn -0.7355 0.5411 -0.4077
vn -0.7926 0.6026 -0.0933
vn -0.5421 0.7940 -0.2753
vn 0.1604 0.5411 -0.8255
vn -0.1562 0.6026 -0.7826
vn 0.0943 0.7940 -0.6006
vn 0.8347 0.5411 -0.1025
vn 0.6960 0.6026 -0.3904
vn 0.6004 0.7940 -0.0959
vn 0.4416 0.8920 -0.0959
vn 0.2277 0.8920 -0.3904
vn 0.1317 0.9886 -0.0736
vn 0.5161 0.8351 -0.1906
vn 0.5945 0.6782 -0.4319
vn 0.3407 0.8351 -0.4319
vn 0.5864 0.6026 -0.5413
vn 0.3250 0.5599 -0.7622
vn 0.2768 0.7940 -0.5413
vn 0.0452 0.8920 -0.4497
vn -0.3009 0.8920 -0.3372
vn -0.0293 0.9886 -0.1480
vn -0.0218 0.8351 -0.5497
vn -0.2271 0.6782 -0.6989
vn -0.3055 0.8351 -0.4575
vn -0.3336 0.6026 -0.7249
vn -0.6244 0.5599 -0.5446
vn -0.4293 0.7940 -0.4305
vn -0.4137 0.8920 -0.1820
vn -0.4137 0.8920 0.1820
vn -0.1498 0.9886 -0.0179
vn -0.5295 0.8351 -0.1492
vn -0.7349 0.6782 -0.0000
vn -0.5295 0.8351 0.1492
vn -0.7926 0.6026 0.0933
vn -0.7109 0.5599 0.4256
vn -0.5421 0.7940 0.2753
vn -0.3009 0.8920 0.3372
vn 0.0452 0.8920 0.4497
vn -0.0633 0.9886 0.1369
vn -0.3055 0.8351 0.4575
vn -0.2271 0.6782 0.6989
vn -0.0218 0.8351 0.5497
vn -0.1562 0.6026 0.7826
vn 0.1851 0.5599 0.8076
vn 0.0943 0.7940 0.6006
vn 0.2277 0.8920 0.3904
vn 0.4416 0.8920 0.0959
vn 0.1107 0.9886 0.1025
vn 0.3407 0.8351 0.4319
vn 0.5945 0.6782 0.4319
vn 0.5161 0.8351 0.1906
vn 0.6960 0.6026 0.3904
vn 0.8253 0.5599 0.0736
vn 0.6004 0.7940 0.0959
vn 0.9324 0.1298 -0.3372
vn 0.7776 0.4394 -0.4497
vn 0.9125 0.3855 -0.1369
vn 0.8835 0.1002 -0.4575
vn 0.7082 0.1002 -0.6989
vn 0.7566 0.3540 -0.5497
vn 0.6088 0.1298 -0.7826
vn 0.4180 0.4159 -0.8076
vn 0.6680 0.4394 -0.6006
vn -0.0326 0.1298 -0.9910
vn -0.1874 0.4394 -0.8785
vn 0.1517 0.3855 -0.9102
vn -0.1621 0.1002 -0.9817
vn -0.4459 0.1002 -0.8895
vn -0.2890 0.3540 -0.8895
vn -0.5562 0.1298 -0.8209
vn -0.6389 0.4159 -0.6471
vn -0.3648 0.4394 -0.8209
vn -0.9526 0.1298 -0.2753
vn -0.8934 0.4394 -0.0933
vn -0.8187 0.3855 -0.4256
vn -0.9837 0.1002 -0.1492
vn -0.9837 0.1002 0.1492
vn -0.9352 0.3540 -0.0000
vn -0.9526 0.1298 0.2753
vn -0.8129 0.4159 0.4077
vn -0.8934 0.4394 0.0933
vn -0.5562 0.1298 0.8209
vn -0.3648 0.4394 0.8209
vn -0.6577 0.3855 0.6471
vn -0.4459 0.1002 0.8895
vn -0.1621 0.1002 0.9817
vn -0.2890 0.3540 0.8895
vn -0.0326 0.1298 0.9910
vn 0.1365 0.4159 0.8991
vn -0.1874 0.4394 0.8785
vn 0.6088 0.1298 0.7826
vn 0.6680 0.4394 0.6006
vn 0.4122 0.3855 0.8255
vn 0.7082 0.1002 0.6989
vn 0.8835 0.1002 0.4575
vn 0.7566 0.3540 0.5497
vn 0.9324 0.1298 0.3372
vn 0.8973 0.4159 0.1480
vn 0.7776 0.4394 0.4497
vn 0.4768 0.0289 -0.8785
vn 0.1306 0.0289 -0.9910
vn 0.3109 0.3081 -0.8991
vn 0.4459 -0.1002 -0.8895
vn 0.2890 -0.3540 -0.8895
vn 0.1621 -0.1002 -0.9817
vn 0.1874 -0.4394 -0.8785
vn -0.1517 -0.3855 -0.9102
vn 0.0326 -0.1298 -0.9910
vn -0.6882 0.0289 -0.7249
vn -0.9021 0.0289 -0.4305
vn -0.7590 0.3081 -0.5736
vn -0.7082 -0.1002 -0.6989
vn -0.7566 -0.3540 -0.5497
vn -0.8835 -0.1002 -0.4575
vn -0.7776 -0.4394 -0.4497
vn -0.9125 -0.3855 -0.1369
vn -0.9324 -0.1298 -0.3372
vn -0.9021 0.0289 0.4305
vn -0.6882 0.0289 0.7249
vn -0.7800 0.3081 0.5446
vn -0.8835 -0.1002 0.4575
vn -0.7566 -0.3540 0.5497
vn -0.7082 -0.1002 0.6989
vn -0.6680 -0.4394 0.6006
vn -0.4122 -0.3855 0.8255
vn -0.6088 -0.1298 0.7826
vn 0.1306 0.0289 0.9910
vn 0.4768 0.0289 0.8785
vn 0.2769 0.3081 0.9102
vn 0.1621 -0.1002 0.9817
vn 0.2890 -0.3540 0.8895
vn 0.4459 -0.1002 0.8895
vn 0.3648 -0.4394 0.8209
vn 0.6577 -0.3855 0.6471
vn 0.5562 -0.1298 0.8209
vn 0.9829 0.0289 0.1820
vn 0.9829 0.0289 -0.1820
vn 0.9512 0.3081 0.0179
vn 0.9837 -0.1002 0.1492
vn 0.9353 -0.3540 -0.0000
vn 0.9837 -0.1002 -0.1492
vn 0.8934 -0.4394 -0.0933
vn 0.8187 -0.3855 -0.4256
vn 0.9526 -0.1298 -0.2753
vn 0.4293 -0.7940 -0.4305
vn 0.3336 -0.6026 -0.7249
vn 0.6244 -0.5599 -0.5446
vn 0.3055 -0.8351 -0.4575
vn 0.0218 -0.8351 -0.5497
vn 0.2271 -0.6782 -0.6989
vn -0.0943 -0.7940 -0.6006
vn -0.1604 -0.5411 -0.8255
vn 0.1562 -0.6026 -0.7826
vn -0.2768 -0.7940 -0.5413
vn -0.5864 -0.6026 -0.5413
vn -0.3250 -0.5599 -0.7622
vn -0.3407 -0.8351 -0.4319
vn -0.5161 -0.8351 -0.1906
vn -0.5945 -0.6782 -0.4319
vn -0.6004 -0.7940 -0.0959
vn -0.8347 -0.5411 -0.1025
vn -0.6960 -0.6026 -0.3904
vn -0.6004 -0.7940 0.0959
vn -0.6960 -0.6026 0.3904
vn -0.8253 -0.5599 0.0736
vn -0.5161 -0.8351 0.1906
vn -0.3407 -0.8351 0.4319
vn -0.5945 -0.6782 0.4319
vn -0.2768 -0.7940 0.5413
vn -0.3554 -0.5411 0.7622
vn -0.5864 -0.6026 0.5413
vn 0.7926 -0.6026 -0.0933
vn 0.5421 -0.7940 -0.2753
vn 0.7355 -0.5411 -0.4077
vn 0.7349 -0.6782 -0.0000
vn 0.5295 -0.8351 0.1492
vn 0.5295 -0.8351 -0.1492
vn 0.4137 -0.8920 0.1820
vn 0.1498 -0.9886 -0.0179
vn 0.4137 -0.8920 -0.1820
vn -0.0943 -0.7940 0.6006
vn 0.1562 -0.6026 0.7826
vn -0.1851 -0.5599 0.8076
vn 0.0218 -0.8351 0.5497
vn 0.3055 -0.8351 0.4575
vn 0.2271 -0.6782 0.6989
vn 0.4293 -0.7940 0.4305
vn 0.6150 -0.5411 0.5736
vn 0.3336 -0.6026 0.7249
vt 0.181819 0.000000
vt 0.181819 0.052487
vt 0.159092 0.039365
vt 0.181819 0.078731
vt 0.204546 0.039365
vt 0.227273 0.078731
vt 0.181819 0.078730
vt 0.136365 0.078731
vt 0.272728 0.157461
vt 0.318182 0.131218
vt 0.318182 0.157461
vt 0.340910 0.118096
vt 0.295455 0.118096
vt 0.318182 0.078731
vt 0.340910 0.118096
vt 0.363637 0.157461
vt 0.909091 0.000000
vt 0.909091 0.052487
vt 0.886364 0.039365
vt 0.909091 0.078731
vt 0.931818 0.039365
vt 0.954545 0.078731
vt 0.909091 0.078730
vt 0.863636 0.078731
vt 0.727273 0.000000
vt 0.727273 0.052487
vt 0.704546 0.039365
vt 0.727273 0.078731
vt 0.750000 0.039365
vt 0.772727 0.078731
vt 0.727273 0.078730
vt 0.681818 0.078731
vt 0.545455 0.000000
vt 0.545455 0.052487
vt 0.522728 0.039365
vt 0.545455 0.078731
vt 0.568182 0.039365
vt 0.590909 0.078731
vt 0.545455 0.078730
vt 0.500000 0.078731
vt 0.318182 0.183704
vt 0.295455 0.196826
vt 0.340910 0.196826
vt 0.318182 0.157461
vt 0.340910 0.196826
vt 0.318183 0.236191
vt 0.090910 0.157461
vt 0.136365 0.183704
vt 0.113637 0.196826
vt 0.159092 0.196826
vt 0.136365 0.157461
vt 0.181819 0.157461
vt 0.113637 0.196826
vt 0.159092 0.196826
vt 0.136364 0.236191
vt 0.818182 0.157461
vt 0.863636 0.183704
vt 0.840909 0.196826
vt 0.886364 0.196826
vt 0.863636 0.157461
vt 0.909091 0.157461
vt 0.863637 0.236191
vt 0.636364 0.157461
vt 0.681818 0.183704
vt 0.659091 0.196826
vt 0.704546 0.196826
vt 0.681819 0.157461
vt 0.727273 0.157461
vt 0.659091 0.196826
vt 0.704546 0.196826
vt 0.681819 0.236191
vt 0.454546 0.157461
vt 0.500001 0.183704
vt 0.477273 0.196826
vt 0.522728 0.196826
vt 0.500001 0.157461
vt 0.545455 0.157461
vt 0.500001 0.236191
vt 0.272728 0.209948
vt 0.250001 0.196826
vt 0.272728 0.236191
vt 0.250001 0.196826
vt 0.272728 0.236191
vt 0.227274 0.236191
vt 0.090910 0.209948
vt 0.068183 0.196826
vt 0.090910 0.236191
vt 0.045455 0.236191
vt 0.818182 0.209948
vt 0.795455 0.196826
vt 0.818182 0.236191
vt 0.840909 0.196826
vt 0.795455 0.196826
vt 0.818182 0.236191
vt 0.772728 0.236191
vt 0.636364 0.209948
vt 0.613637 0.196826
vt 0.636364 0.236191
vt 0.613637 0.196826
vt 0.636364 0.236191
vt 0.590910 0.236191
vt 0.454546 0.209948
vt 0.431819 0.196826
vt 0.454546 0.236191
vt 0.477273 0.196826
vt 0.431819 0.196826
vt 0.454546 0.236191
vt 0.409092 0.236191
vt 0.181819 0.314921
vt 0.227274 0.341165
vt 0.204546 0.354286
vt 0.250001 0.354286
vt 0.227274 0.314921
vt 0.272728 0.314921
vt 0.204546 0.354286
vt 0.250001 0.354286
vt 0.227273 0.393651
vt 0.000000 0.314921
vt 0.045455 0.341165
vt 0.022728 0.354286
vt 0.068182 0.354286
vt 0.045455 0.314921
vt 0.090910 0.314921
vt 0.022728 0.354286
vt 0.068182 0.354286
vt 0.045455 0.393651
vt 0.727273 0.314921
vt 0.772727 0.341165
vt 0.750000 0.354286
vt 0.795455 0.354286
vt 0.772728 0.314921
vt 0.818182 0.314921
vt 0.750000 0.354286
vt 0.795455 0.354286
vt 0.772727 0.393651
vt 0.545455 0.314921
vt 0.590909 0.341165
vt 0.568182 0.354286
vt 0.613637 0.354286
vt 0.590910 0.314921
vt 0.636364 0.314921
vt 0.568182 0.354286
vt 0.613637 0.354286
vt 0.590909 0.393651
vt 0.363637 0.314921
vt 0.409092 0.341165
vt 0.386364 0.354286
vt 0.431819 0.354286
vt 0.409092 0.314921
vt 0.454546 0.314921
vt 0.386364 0.354286
vt 0.431819 0.354286
vt 0.409092 0.393651
vt 0.454546 0.393652
vt 0.431819 0.433017
vt 0.477273 0.433017
vt 0.500000 0.393651
vt 0.454546 0.472382
vt 0.454546 0.419895
vt 0.431819 0.354286
vt 0.454546 0.393652
vt 0.477273 0.354286
vt 0.431819 0.354286
vt 0.454546 0.393652
vt 0.477273 0.354286
vt 0.500001 0.314921
vt 0.477273 0.354286
vt 0.500000 0.341165
vt 0.522728 0.354286
vt 0.636364 0.393652
vt 0.613637 0.433017
vt 0.659091 0.433017
vt 0.636364 0.393652
vt 0.681818 0.393651
vt 0.636364 0.472382
vt 0.636364 0.419895
vt 0.613637 0.354286
vt 0.659091 0.354286
vt 0.613637 0.354286
vt 0.636364 0.393652
vt 0.659091 0.354286
vt 0.681819 0.314921
vt 0.681818 0.341165
vt 0.704546 0.354286
vt 0.818182 0.393652
vt 0.795455 0.433017
vt 0.840909 0.433017
vt 0.863636 0.393651
vt 0.818182 0.472382
vt 0.818182 0.419895
vt 0.795455 0.354286
vt 0.818182 0.393652
vt 0.840909 0.354286
vt 0.795455 0.354286
vt 0.818182 0.393652
vt 0.840909 0.354286
vt 0.863637 0.314921
vt 0.840909 0.354286
vt 0.909091 0.314921
vt 0.863636 0.341165
vt 0.840909 0.354286
vt 0.886364 0.354286
vt 0.090910 0.393652
vt 0.068183 0.433017
vt 0.113637 0.433017
vt 0.136365 0.393651
vt 0.090910 0.472382
vt 0.090910 0.419895
vt 0.113637 0.433017
vt 0.068182 0.354286
vt 0.113637 0.354286
vt 0.068182 0.354286
vt 0.090910 0.393652
vt 0.113637 0.354286
vt 0.136364 0.314921
vt 0.113637 0.354286
vt 0.136364 0.341165
vt 0.136364 0.314921
vt 0.113637 0.354286
vt 0.159092 0.354286
vt 0.272728 0.393652
vt 0.250001 0.433017
vt 0.295455 0.433017
vt 0.318182 0.393651
vt 0.272728 0.472382
vt 0.272728 0.419895
vt 0.295455 0.354286
vt 0.250001 0.354286
vt 0.272728 0.393652
vt 0.295455 0.354286
vt 0.318182 0.314921
vt 0.295455 0.354286
vt 0.318182 0.341165
vt 0.318183 0.314921
vt 0.340910 0.354286
vt 0.431819 0.275556
vt 0.386364 0.275556
vt 0.409092 0.314921
vt 0.431819 0.275556
vt 0.409092 0.288678
vt 0.409092 0.314921
vt 0.454546 0.236191
vt 0.431819 0.275556
vt 0.477273 0.275556
vt 0.454546 0.236191
vt 0.477273 0.275556
vt 0.522728 0.275556
vt 0.500000 0.288678
vt 0.500001 0.314921
vt 0.613637 0.275556
vt 0.568182 0.275556
vt 0.590910 0.314921
vt 0.613637 0.275556
vt 0.590910 0.288678
vt 0.590910 0.314921
vt 0.636364 0.236191
vt 0.659091 0.275556
vt 0.636364 0.236191
vt 0.613637 0.275556
vt 0.659091 0.275556
vt 0.704546 0.275556
vt 0.681819 0.288678
vt 0.659091 0.275556
vt 0.681818 0.314921
vt 0.795455 0.275556
vt 0.750000 0.275556
vt 0.772728 0.314921
vt 0.795455 0.275556
vt 0.772728 0.288678
vt 0.818182 0.236191
vt 0.840909 0.275556
vt 0.840909 0.275556
vt 0.886364 0.275556
vt 0.863636 0.288678
vt 0.840909 0.275556
vt 0.863637 0.314921
vt 0.068182 0.275556
vt 0.022728 0.275556
vt 0.045455 0.314921
vt 0.068182 0.275556
vt 0.045455 0.288678
vt 0.045455 0.314921
vt 0.090910 0.236191
vt 0.068182 0.275556
vt 0.113637 0.275556
vt 0.090910 0.236191
vt 0.113637 0.275556
vt 0.159092 0.275556
vt 0.113637 0.275556
vt 0.136364 0.288678
vt 0.159092 0.275556
vt 0.113637 0.275556
vt 0.136364 0.314921
vt 0.250001 0.275556
vt 0.204546 0.275556
vt 0.227274 0.314921
vt 0.250001 0.275556
vt 0.227274 0.288678
vt 0.227274 0.314921
vt 0.295455 0.275556
vt 0.295455 0.275556
vt 0.340910 0.275556
vt 0.295455 0.275556
vt 0.318183 0.288678
vt 0.340910 0.275556
vt 0.295455 0.275556
vt 0.318183 0.314921
vt 0.545455 0.236191
vt 0.522728 0.275556
vt 0.568182 0.275556
vt 0.545455 0.236191
vt 0.545455 0.262434
vt 0.568182 0.275556
vt 0.522728 0.196826
vt 0.545455 0.236191
vt 0.568182 0.196826
vt 0.568182 0.196826
vt 0.590910 0.157461
vt 0.568182 0.196826
vt 0.590909 0.183704
vt 0.613637 0.196826
vt 0.727273 0.236191
vt 0.704546 0.275556
vt 0.750000 0.275556
vt 0.727273 0.236191
vt 0.727273 0.262434
vt 0.750000 0.275556
vt 0.704546 0.196826
vt 0.727273 0.236191
vt 0.750000 0.196826
vt 0.727273 0.236191
vt 0.750000 0.196826
vt 0.772728 0.157461
vt 0.750000 0.196826
vt 0.772727 0.183704
vt 0.772727 0.157461
vt 0.750000 0.196826
vt 0.909091 0.236191
vt 0.886364 0.275556
vt 0.931818 0.275556
vt 0.909091 0.236191
vt 0.954545 0.236191
vt 0.909091 0.262434
vt 0.886364 0.196826
vt 0.909091 0.236191
vt 0.931818 0.196826
vt 0.909091 0.236191
vt 0.931818 0.196826
vt 0.954546 0.157461
vt 0.931818 0.196826
vt 1.000000 0.157461
vt 0.954545 0.183704
vt 0.977273 0.196826
vt 0.181819 0.236191
vt 0.204546 0.275556
vt 0.181819 0.262434
vt 0.204546 0.275556
vt 0.181819 0.236191
vt 0.204546 0.196826
vt 0.181819 0.236191
vt 0.204546 0.196826
vt 0.227274 0.157461
vt 0.204546 0.196826
vt 0.227274 0.183704
vt 0.204546 0.196826
vt 0.250001 0.196826
vt 0.363637 0.236191
vt 0.386364 0.275556
vt 0.363637 0.236191
vt 0.363637 0.262434
vt 0.363637 0.236191
vt 0.386364 0.196826
vt 0.386364 0.196826
vt 0.409092 0.157461
vt 0.386364 0.196826
vt 0.409092 0.183704
vt 0.409091 0.157461
vt 0.522728 0.118096
vt 0.477273 0.118096
vt 0.500001 0.157461
vt 0.500001 0.131218
vt 0.500001 0.157461
vt 0.545455 0.078730
vt 0.568182 0.118096
vt 0.545455 0.078730
vt 0.522728 0.118096
vt 0.568182 0.118096
vt 0.613637 0.118096
vt 0.568182 0.118096
vt 0.590910 0.131218
vt 0.613637 0.118096
vt 0.590910 0.157461
vt 0.704546 0.118096
vt 0.659091 0.118096
vt 0.681819 0.157461
vt 0.704546 0.118096
vt 0.681819 0.131218
vt 0.750000 0.118096
vt 0.727273 0.078730
vt 0.795455 0.118096
vt 0.750000 0.118096
vt 0.772727 0.131218
vt 0.795455 0.118096
vt 0.750000 0.118096
vt 0.886364 0.118096
vt 0.840909 0.118096
vt 0.863637 0.157461
vt 0.886364 0.118096
vt 0.863636 0.131218
vt 0.886364 0.118096
vt 0.931818 0.118096
vt 0.909091 0.078730
vt 0.931818 0.118096
vt 0.977273 0.118096
vt 0.931818 0.118096
vt 0.954546 0.131218
vt 0.977273 0.118096
vt 0.954546 0.157461
vt 0.386364 0.118096
vt 0.409092 0.157461
vt 0.431819 0.118096
vt 0.386364 0.118096
vt 0.409092 0.078731
vt 0.409092 0.131218
vt 0.431819 0.118096
vt 0.340910 0.118096
vt 0.363637 0.078731
vt 0.386364 0.118096
vt 0.340910 0.039365
vt 0.363637 0.000000
vt 0.363637 0.052487
vt 0.363637 0.078731
vt 0.386364 0.039365
vt 0.159092 0.118096
vt 0.113637 0.118096
vt 0.136365 0.157461
vt 0.136365 0.131218
vt 0.204546 0.118096
vt 0.181819 0.078730
vt 0.250001 0.118096
vt 0.204546 0.118096
vt 0.227274 0.131218
vt 0.250001 0.118096
vt 0.204546 0.118096
vt 0.204546 0.039365
vt 0.295455 0.118096
vt 0.295455 0.196826
vt 0.113637 0.196826
vt 0.840909 0.196826
vt 0.659091 0.196826
vt 0.477273 0.196826
vt 0.227274 0.314921
vt 0.772728 0.314921
vt 0.454546 0.367408
vt 0.522728 0.354286
vt 0.636364 0.367408
vt 0.704546 0.354286
vt 0.818182 0.367408
vt 0.886364 0.354286
vt 0.090910 0.367408
vt 0.159092 0.354286
vt 0.272728 0.367408
vt 0.340910 0.354286
vt 0.454546 0.262434
vt 0.636364 0.262434
vt 0.818182 0.262434
vt 0.863637 0.314921
vt 0.022728 0.275556
vt 0.090910 0.262434
vt 0.272728 0.262434
vt 0.522728 0.275556
vt 0.545455 0.209948
vt 0.613637 0.196826
vt 0.704546 0.275556
vt 0.727273 0.209948
vt 0.795455 0.196826
vt 0.909091 0.209948
vt 0.159092 0.275556
vt 0.181819 0.209948
vt 0.250001 0.196826
vt 0.340910 0.275556
vt 0.363637 0.209948
vt 0.431819 0.196826
vt 0.477273 0.118096
vt 0.545455 0.104974
vt 0.590910 0.157461
vt 0.659091 0.118096
vt 0.727273 0.104974
vt 0.772728 0.157461
vt 0.840909 0.118096
vt 0.909091 0.104974
vt 0.954546 0.157461
vt 0.409092 0.157461
vt 0.363637 0.104974
vt 0.113637 0.118096
vt 0.181819 0.104974
vt 0.227274 0.157461
s 0
f 1/1/1 163/2/1 43/3/1
f 161/4/2 74/5/2 14/6/2
f 43/3/3 161/7/3 13/8/3
f 2/9/4 164/10/4 46/11/4
f 158/12/5 44/13/5 14/14/5
f 46/11/6 158/15/6 16/16/6
f 1/17/7 165/18/7 48/19/7
f 155/20/8 43/21/8 13/22/8
f 48/19/9 155/23/9 18/24/9
f 1/25/10 166/26/10 50/27/10
f 152/28/11 48/29/11 18/30/11
f 50/27/12 152/31/12 20/32/12
f 1/33/13 167/34/13 77/35/13
f 149/36/14 50/37/14 20/38/14
f 77/35/15 149/39/15 17/40/15
f 2/9/16 168/41/16 53/42/16
f 146/43/17 46/44/17 16/16/17
f 53/42/18 146/45/18 23/46/18
f 3/47/19 169/48/19 55/49/19
f 143/50/20 45/51/20 15/52/20
f 55/53/21 143/54/21 25/55/21
f 4/56/22 170/57/22 57/58/22
f 140/59/23 49/60/23 19/61/23
f 57/58/24 140/59/24 27/62/24
f 5/63/25 171/64/25 59/65/25
f 137/66/26 51/67/26 21/68/26
f 59/69/27 137/70/27 29/71/27
f 6/72/28 172/73/28 61/74/28
f 134/75/29 52/76/29 22/77/29
f 61/74/30 134/75/30 31/78/30
f 2/9/31 173/79/31 86/80/31
f 131/81/32 53/42/32 23/46/32
f 86/82/33 131/83/33 26/84/33
f 3/47/34 174/85/34 88/86/34
f 128/87/35 55/49/35 25/55/35
f 88/86/36 128/87/36 28/88/36
f 4/56/37 175/89/37 90/90/37
f 125/91/38 57/92/38 27/62/38
f 90/93/39 125/94/39 30/95/39
f 5/63/40 176/96/40 92/97/40
f 122/98/41 59/65/41 29/71/41
f 92/99/42 122/100/42 32/101/42
f 6/72/43 177/102/43 84/103/43
f 119/104/44 61/105/44 31/78/44
f 84/106/45 119/107/45 24/108/45
f 7/109/46 178/110/46 68/111/46
f 116/112/47 63/113/47 33/114/47
f 68/115/48 116/116/48 38/117/48
f 8/118/49 179/119/49 70/120/49
f 113/121/50 64/122/50 34/123/50
f 70/124/51 113/125/51 40/126/51
f 9/127/52 180/128/52 71/129/52
f 110/130/53 65/131/53 35/132/53
f 71/133/54 110/134/54 41/135/54
f 10/136/55 181/137/55 72/138/55
f 107/139/56 66/140/56 36/141/56
f 72/142/57 107/143/57 42/144/57
f 11/145/58 182/146/58 99/147/58
f 104/148/59 67/149/59 37/150/59
f 99/151/60 104/152/60 39/153/60
f 103/154/61 69/155/61 39/153/61
f 102/156/62 103/154/62 42/157/62
f 12/158/63 183/159/63 102/156/63
f 104/160/64 103/161/64 39/153/64
f 105/162/65 104/163/65 37/150/65
f 103/164/66 105/165/66 42/157/66
f 97/166/67 105/167/67 37/150/67
f 10/136/68 185/168/68 97/166/68
f 105/165/69 72/169/69 42/157/69
f 106/170/70 102/171/70 42/144/70
f 101/172/71 106/173/71 41/174/71
f 12/175/72 186/176/72 101/172/72
f 107/177/73 106/170/73 42/144/73
f 108/178/74 107/179/74 36/141/74
f 106/180/75 108/181/75 41/174/75
f 96/182/76 108/178/76 36/141/76
f 9/127/77 188/183/77 96/182/77
f 108/181/78 71/184/78 41/174/78
f 109/185/79 101/186/79 41/135/79
f 100/187/80 109/185/80 40/188/80
f 12/189/81 189/190/81 100/187/81
f 110/191/82 109/192/82 41/135/82
f 111/193/83 110/194/83 35/132/83
f 109/195/84 111/196/84 40/188/84
f 95/197/85 111/198/85 35/132/85
f 8/199/86 191/200/86 95/197/86
f 111/201/87 70/202/87 40/188/87
f 112/203/88 100/204/88 40/126/88
f 98/205/89 112/203/89 38/206/89
f 12/207/90 192/208/90 98/209/90
f 113/210/91 112/203/91 40/126/91
f 114/211/92 113/212/92 34/123/92
f 112/213/93 114/214/93 38/206/93
f 94/215/94 114/216/94 34/123/94
f 7/109/95 194/217/95 94/218/95
f 114/219/96 68/220/96 38/206/96
f 115/221/97 98/222/97 38/117/97
f 69/223/98 115/221/98 39/224/98
f 12/225/99 195/226/99 69/223/99
f 116/112/100 115/221/100 38/117/100
f 117/227/101 116/228/101 33/114/101
f 115/229/102 117/230/102 39/224/102
f 93/231/103 117/232/103 33/114/103
f 11/145/104 197/233/104 93/234/104
f 117/230/105 99/235/105 39/224/105
f 118/236/106 54/237/106 24/108/106
f 67/238/107 118/239/107 37/150/107
f 11/145/108 198/240/108 67/241/108
f 119/242/109 118/243/109 24/108/109
f 120/244/110 119/245/110 31/78/110
f 118/243/111 120/246/111 37/150/111
f 91/247/112 120/246/112 31/78/112
f 10/136/113 200/248/113 91/247/113
f 120/244/114 97/249/114 37/150/114
f 121/250/115 62/251/115 32/101/115
f 66/252/116 121/253/116 36/141/116
f 10/136/117 201/254/117 66/255/117
f 122/256/118 121/253/118 32/101/118
f 123/257/119 122/258/119 29/71/119
f 121/259/120 123/260/120 36/141/120
f 89/261/121 123/260/121 29/71/121
f 9/127/122 203/262/122 89/261/122
f 123/263/123 96/264/123 36/141/123
f 124/265/124 60/266/124 30/95/124
f 65/267/125 124/268/125 35/132/125
f 9/127/126 204/269/126 65/267/126
f 125/270/127 124/268/127 30/95/127
f 126/271/128 125/270/128 27/62/128
f 124/268/129 126/272/129 35/132/129
f 87/273/130 126/272/130 27/62/130
f 8/199/131 206/274/131 87/273/131
f 126/275/132 95/276/132 35/132/132
f 127/277/133 58/278/133 28/88/133
f 64/279/134 127/280/134 34/123/134
f 8/118/135 207/281/135 64/282/135
f 128/283/136 127/284/136 28/88/136
f 129/285/137 128/286/137 25/55/137
f 127/280/138 129/287/138 34/123/138
f 85/288/139 129/289/139 25/55/139
f 7/109/140 209/290/140 85/291/140
f 129/292/141 94/293/141 34/123/141
f 130/294/142 56/295/142 26/84/142
f 63/296/143 130/297/143 33/114/143
f 7/109/144 210/298/144 63/299/144
f 131/83/145 130/297/145 26/84/145
f 132/300/146 131/83/146 23/46/146
f 130/297/147 132/301/147 33/114/147
f 83/302/148 132/303/148 23/46/148
f 11/145/149 212/304/149 83/305/149
f 132/306/150 93/307/150 33/114/150
f 133/308/151 91/309/151 31/78/151
f 62/310/152 133/311/152 32/101/152
f 10/136/153 213/312/153 62/313/153
f 134/314/154 133/315/154 31/78/154
f 135/316/155 134/75/155 22/77/155
f 133/315/156 135/317/156 32/101/156
f 82/318/157 135/319/157 22/77/157
f 5/63/158 215/320/158 82/318/158
f 135/316/159 92/321/159 32/101/159
f 136/322/160 89/323/160 29/71/160
f 60/324/161 136/325/161 30/95/161
f 9/127/162 216/326/162 60/327/162
f 137/328/163 136/329/163 29/71/163
f 138/330/164 137/70/164 21/68/164
f 136/331/165 138/332/165 30/95/165
f 81/333/166 138/334/166 21/68/166
f 4/56/167 218/335/167 81/336/167
f 138/337/168 90/93/168 30/95/168
f 139/338/169 87/339/169 27/62/169
f 58/340/170 139/341/170 28/342/170
f 8/199/171 219/343/171 58/340/171
f 140/344/172 139/345/172 27/62/172
f 141/346/173 140/344/173 19/61/173
f 139/347/174 141/348/174 28/342/174
f 79/349/175 141/350/175 19/61/175
f 3/351/176 221/352/176 79/349/176
f 141/350/177 88/353/177 28/342/177
f 142/354/178 85/288/178 25/55/178
f 56/355/179 142/354/179 26/84/179
f 7/109/180 222/356/180 56/357/180
f 143/54/181 142/358/181 25/55/181
f 144/359/182 143/50/182 15/52/182
f 142/360/183 144/361/183 26/84/183
f 75/362/184 144/363/184 15/52/184
f 2/9/185 224/364/185 75/362/185
f 144/365/186 86/366/186 26/84/186
f 145/367/187 83/302/187 23/46/187
f 54/368/188 145/369/188 24/108/188
f 11/145/189 225/370/189 54/237/189
f 146/45/190 145/371/190 23/46/190
f 147/372/191 146/43/191 16/16/191
f 145/371/192 147/373/192 24/108/192
f 76/374/193 147/375/193 16/16/193
f 6/72/194 227/376/194 76/377/194
f 147/375/195 84/106/195 24/108/195
f 148/378/196 47/379/196 17/40/196
f 52/380/197 148/378/197 22/77/197
f 6/72/198 228/381/198 52/382/198
f 149/383/199 148/378/199 17/40/199
f 150/384/200 149/385/200 20/38/200
f 148/386/201 150/387/201 22/77/201
f 80/388/202 150/389/202 20/38/202
f 5/63/203 230/390/203 80/391/203
f 150/389/204 82/392/204 22/77/204
f 151/393/205 80/394/205 20/32/205
f 51/395/206 151/396/206 21/68/206
f 5/63/207 231/397/207 51/395/207
f 152/31/208 151/396/208 20/32/208
f 153/398/209 152/399/209 18/30/209
f 151/396/210 153/398/210 21/68/210
f 78/400/211 153/401/211 18/30/211
f 4/56/212 233/402/212 78/403/212
f 153/404/213 81/333/213 21/68/213
f 154/405/214 78/406/214 18/24/214
f 49/407/215 154/408/215 19/61/215
f 4/56/216 234/409/216 49/407/216
f 155/23/217 154/410/217 18/24/217
f 156/411/218 155/412/218 13/22/218
f 154/410/219 156/413/219 19/61/219
f 73/414/220 156/415/220 13/22/220
f 3/351/221 236/416/221 73/417/221
f 156/415/222 79/418/222 19/61/222
f 157/419/223 76/420/223 16/16/223
f 47/421/224 157/422/224 17/423/224
f 6/72/225 237/424/225 47/425/225
f 158/426/226 157/419/226 16/16/226
f 159/427/227 158/12/227 14/14/227
f 157/428/228 159/427/228 17/423/228
f 74/429/229 159/427/229 14/14/229
f 1/430/230 239/431/230 74/429/230
f 159/432/231 77/433/231 17/423/231
f 160/434/232 73/435/232 13/8/232
f 45/436/233 160/434/233 15/52/233
f 3/47/234 240/437/234 45/436/234
f 161/7/235 160/434/235 13/8/235
f 162/438/236 161/439/236 14/6/236
f 160/434/237 162/438/237 15/52/237
f 44/440/238 162/441/238 14/6/238
f 2/9/239 242/442/239 44/443/239
f 162/444/240 75/362/240 15/52/240
f 1/1/241 74/445/241 163/2/241
f 161/4/242 163/2/242 74/5/242
f 43/3/243 163/2/243 161/7/243
f 2/9/244 44/446/244 164/10/244
f 158/12/245 164/10/245 44/13/245
f 46/11/246 164/10/246 158/15/246
f 1/17/247 43/21/247 165/18/247
f 155/20/248 165/18/248 43/21/248
f 48/19/249 165/18/249 155/23/249
f 1/25/250 48/29/250 166/26/250
f 152/28/251 166/26/251 48/29/251
f 50/27/252 166/26/252 152/31/252
f 1/33/253 50/37/253 167/34/253
f 149/36/254 167/34/254 50/37/254
f 77/35/255 167/34/255 149/39/255
f 2/9/256 46/44/256 168/41/256
f 146/43/257 168/41/257 46/44/257
f 53/42/258 168/41/258 146/45/258
f 3/47/259 45/51/259 169/48/259
f 143/50/260 169/48/260 45/51/260
f 55/53/261 169/48/261 143/54/261
f 4/56/262 49/60/262 170/57/262
f 140/59/263 170/57/263 49/60/263
f 57/58/264 170/57/264 140/59/264
f 5/63/265 51/67/265 171/64/265
f 137/66/266 171/64/266 51/67/266
f 59/69/267 171/64/267 137/70/267
f 6/72/268 52/76/268 172/73/268
f 134/75/269 172/73/269 52/76/269
f 61/74/270 172/73/270 134/75/270
f 2/9/271 53/447/271 173/79/271
f 131/81/272 173/79/272 53/42/272
f 86/82/273 173/79/273 131/83/273
f 3/47/274 55/448/274 174/85/274
f 128/87/275 174/85/275 55/49/275
f 88/86/276 174/85/276 128/87/276
f 4/56/277 57/449/277 175/89/277
f 125/91/278 175/89/278 57/92/278
f 90/93/279 175/89/279 125/94/279
f 5/63/280 59/450/280 176/96/280
f 122/98/281 176/96/281 59/65/281
f 92/99/282 176/96/282 122/100/282
f 6/72/283 61/451/283 177/102/283
f 119/104/284 177/102/284 61/105/284
f 84/106/285 177/102/285 119/107/285
f 7/109/286 63/452/286 178/110/286
f 116/112/287 178/110/287 63/113/287
f 68/115/288 178/110/288 116/116/288
f 8/118/289 64/122/289 179/119/289
f 113/121/290 179/119/290 64/122/290
f 70/124/291 179/119/291 113/125/291
f 9/127/292 65/453/292 180/128/292
f 110/130/293 180/128/293 65/131/293
f 71/133/294 180/128/294 110/134/294
f 10/136/295 66/140/295 181/137/295
f 107/139/296 181/137/296 66/140/296
f 72/142/297 181/137/297 107/143/297
f 11/145/298 67/149/298 182/146/298
f 104/148/299 182/146/299 67/149/299
f 99/151/300 182/146/300 104/152/300
f 103/154/301 183/159/301 69/155/301
f 102/156/302 183/159/302 103/154/302
f 12/158/303 69/155/303 183/159/303
f 104/160/304 184/454/304 103/161/304
f 105/162/305 184/454/305 104/163/305
f 103/164/306 184/454/306 105/165/306
f 97/166/307 185/168/307 105/167/307
f 10/136/308 72/455/308 185/168/308
f 105/165/309 185/168/309 72/169/309
f 106/170/310 186/176/310 102/171/310
f 101/172/311 186/176/311 106/173/311
f 12/175/312 102/171/312 186/176/312
f 107/177/313 187/456/313 106/170/313
f 108/178/314 187/456/314 107/179/314
f 106/180/315 187/456/315 108/181/315
f 96/182/316 188/183/316 108/178/316
f 9/127/317 71/457/317 188/183/317
f 108/181/318 188/183/318 71/184/318
f 109/185/319 189/190/319 101/186/319
f 100/187/320 189/190/320 109/185/320
f 12/189/321 101/186/321 189/190/321
f 110/191/322 190/458/322 109/192/322
f 111/193/323 190/458/323 110/194/323
f 109/195/324 190/458/324 111/196/324
f 95/197/325 191/200/325 111/198/325
f 8/199/326 70/459/326 191/200/326
f 111/201/327 191/200/327 70/202/327
f 112/203/328 192/208/328 100/204/328
f 98/205/329 192/208/329 112/203/329
f 12/207/330 100/204/330 192/208/330
f 113/210/331 193/460/331 112/203/331
f 114/211/332 193/460/332 113/212/332
f 112/213/333 193/460/333 114/214/333
f 94/215/334 194/217/334 114/216/334
f 7/109/335 68/461/335 194/217/335
f 114/219/336 194/217/336 68/220/336
f 115/221/337 195/226/337 98/222/337
f 69/223/338 195/226/338 115/221/338
f 12/225/339 98/222/339 195/226/339
f 116/112/340 196/462/340 115/221/340
f 117/227/341 196/462/341 116/228/341
f 115/229/342 196/462/342 117/230/342
f 93/231/343 197/233/343 117/232/343
f 11/145/344 99/463/344 197/233/344
f 117/230/345 197/233/345 99/235/345
f 118/236/346 198/240/346 54/237/346
f 67/238/347 198/240/347 118/239/347
f 11/145/348 54/237/348 198/240/348
f 119/242/349 199/464/349 118/243/349
f 120/244/350 199/464/350 119/245/350
f 118/243/351 199/464/351 120/246/351
f 91/247/352 200/248/352 120/246/352
f 10/136/353 97/166/353 200/248/353
f 120/244/354 200/248/354 97/249/354
f 121/250/355 201/254/355 62/251/355
f 66/252/356 201/254/356 121/253/356
f 10/136/357 62/313/357 201/254/357
f 122/256/358 202/465/358 121/253/358
f 123/257/359 202/465/359 122/258/359
f 121/259/360 202/465/360 123/260/360
f 89/261/361 203/262/361 123/260/361
f 9/127/362 96/182/362 203/262/362
f 123/263/363 203/262/363 96/264/363
f 124/265/364 204/269/364 60/266/364
f 65/267/365 204/269/365 124/268/365
f 9/127/366 60/266/366 204/269/366
f 125/270/367 205/466/367 124/268/367
f 126/271/368 205/466/368 125/270/368
f 124/268/369 205/466/369 126/272/369
f 87/273/370 206/274/370 126/272/370
f 8/199/371 95/467/371 206/274/371
f 126/275/372 206/274/372 95/276/372
f 127/277/373 207/281/373 58/278/373
f 64/279/374 207/281/374 127/280/374
f 8/118/375 58/468/375 207/281/375
f 128/283/376 208/469/376 127/284/376
f 129/285/377 208/469/377 128/286/377
f 127/280/378 208/469/378 129/287/378
f 85/288/379 209/290/379 129/289/379
f 7/109/380 94/218/380 209/290/380
f 129/292/381 209/290/381 94/293/381
f 130/294/382 210/298/382 56/295/382
f 63/296/383 210/298/383 130/297/383
f 7/109/384 56/295/384 210/298/384
f 131/83/385 211/470/385 130/297/385
f 132/300/386 211/470/386 131/83/386
f 130/297/387 211/470/387 132/301/387
f 83/302/388 212/304/388 132/303/388
f 11/145/389 93/234/389 212/304/389
f 132/306/390 212/304/390 93/307/390
f 133/308/391 213/312/391 91/309/391
f 62/310/392 213/312/392 133/311/392
f 10/136/393 91/471/393 213/312/393
f 134/314/394 214/472/394 133/315/394
f 135/316/395 214/472/395 134/75/395
f 133/315/396 214/472/396 135/317/396
f 82/318/397 215/320/397 135/319/397
f 5/63/398 92/473/398 215/320/398
f 135/316/399 215/320/399 92/321/399
f 136/322/400 216/326/400 89/323/400
f 60/324/401 216/326/401 136/325/401
f 9/127/402 89/474/402 216/326/402
f 137/328/403 217/475/403 136/329/403
f 138/330/404 217/475/404 137/70/404
f 136/331/405 217/475/405 138/332/405
f 81/333/406 218/335/406 138/334/406
f 4/56/407 90/476/407 218/335/407
f 138/337/408 218/335/408 90/93/408
f 139/338/409 219/343/409 87/339/409
f 58/340/410 219/343/410 139/341/410
f 8/199/411 87/339/411 219/343/411
f 140/344/412 220/477/412 139/345/412
f 141/346/413 220/477/413 140/344/413
f 139/347/414 220/477/414 141/348/414
f 79/349/415 221/352/415 141/350/415
f 3/351/416 88/353/416 221/352/416
f 141/350/417 221/352/417 88/353/417
f 142/354/418 222/356/418 85/288/418
f 56/355/419 222/356/419 142/354/419
f 7/109/420 85/478/420 222/356/420
f 143/54/421 223/479/421 142/358/421
f 144/359/422 223/479/422 143/50/422
f 142/360/423 223/479/423 144/361/423
f 75/362/424 224/364/424 144/363/424
f 2/9/425 86/480/425 224/364/425
f 144/365/426 224/364/426 86/366/426
f 145/367/427 225/370/427 83/302/427
f 54/368/428 225/370/428 145/369/428
f 11/145/429 83/481/429 225/370/429
f 146/45/430 226/482/430 145/371/430
f 147/372/431 226/482/431 146/43/431
f 145/371/432 226/482/432 147/373/432
f 76/374/433 227/376/433 147/375/433
f 6/72/434 84/483/434 227/376/434
f 147/375/435 227/376/435 84/106/435
f 148/378/436 228/381/436 47/379/436
f 52/380/437 228/381/437 148/378/437
f 6/72/438 47/484/438 228/381/438
f 149/383/439 229/485/439 148/378/439
f 150/384/440 229/485/440 149/385/440
f 148/386/441 229/485/441 150/387/441
f 80/388/442 230/390/442 150/389/442
f 5/63/443 82/486/443 230/390/443
f 150/389/444 230/390/444 82/392/444
f 151/393/445 231/397/445 80/394/445
f 51/395/446 231/397/446 151/396/446
f 5/63/447 80/487/447 231/397/447
f 152/31/448 232/488/448 151/396/448
f 153/398/449 232/488/449 152/399/449
f 151/396/450 232/488/450 153/398/450
f 78/400/451 233/402/451 153/401/451
f 4/56/452 81/489/452 233/402/452
f 153/404/453 233/402/453 81/333/453
f 154/405/454 234/409/454 78/406/454
f 49/407/455 234/409/455 154/408/455
f 4/56/456 78/490/456 234/409/456
f 155/23/457 235/491/457 154/410/457
f 156/411/458 235/491/458 155/412/458
f 154/410/459 235/491/459 156/413/459
f 73/414/460 236/416/460 156/415/460
f 3/351/461 79/492/461 236/416/461
f 156/415/462 236/416/462 79/418/462
f 157/419/463 237/424/463 76/420/463
f 47/421/464 237/424/464 157/422/464
f 6/72/465 76/493/465 237/424/465
f 158/426/466 238/494/466 157/419/466
f 159/427/467 238/494/467 158/12/467
f 157/428/468 238/494/468 159/427/468
f 74/429/469 239/431/469 159/427/469
f 1/430/470 77/433/470 239/431/470
f 159/432/471 239/431/471 77/433/471
f 160/434/472 240/437/472 73/435/472
f 45/436/473 240/437/473 160/434/473
f 3/47/474 73/495/474 240/437/474
f 161/7/475 241/496/475 160/434/475
f 162/438/476 241/496/476 161/439/476
f 160/434/477 241/496/477 162/438/477
f 44/440/478 242/442/478 162/441/478
f 2/9/479 75/497/479 242/442/479
f 162/444/480 242/442/480 75/362/480
